<svg width="185" height="215" viewBox="0 0 185 215" fill="none" xmlns="http://www.w3.org/2000/svg">
<path d="M8 93H140C160.742 93 171.112 93 177.556 99.4438C184 105.888 184 116.258 184 137V148C184 179.112 184 194.669 174.334 204.334C164.669 214 149.112 214 118 214H74C42.8873 214 27.331 214 17.6655 204.334C8 194.669 8 179.112 8 148V93Z" stroke="#4074A5" stroke-width="1.5"/>
<path d="M8.01682 92.9967C2.69502 73.1353 0.0342252 63.2049 2.32278 54.6638C3.82208 49.0684 6.76777 43.9664 10.8638 39.8703C17.1162 33.6178 27.0467 30.957 46.9076 25.6352L123.94 4.99439C131.346 3.0101 135.049 2.01801 138.292 1.80538C151.61 0.93242 164.144 8.16844 170.046 20.1392C171.484 23.0542 172.476 26.757 174.461 34.1625C175.122 36.6312 175.453 37.8654 175.524 38.9464C175.815 43.386 173.403 47.5637 169.413 49.5315C168.44 50.0107 167.206 50.3415 164.738 51.0029L8.01682 92.9967Z" stroke="#4074A5" stroke-width="1.5"/>
<path opacity="0.5" d="M125.704 4.35485L118.69 63.1747" stroke="#4074A5" stroke-width="1.5" stroke-linecap="round"/>
<path opacity="0.5" d="M56.6402 22.8636L49.625 81.6835" stroke="#4074A5" stroke-width="1.5" stroke-linecap="round"/>
</svg>
